<mxfile host="app.diagrams.net" agent="Mozilla/5.0 (Macintosh; Intel Mac OS X 10_15_7) AppleWebKit/537.36 (KHTML, like Gecko) Chrome/127.0.0.0 Safari/537.36" version="24.7.7">
  <diagram name="Strona-1" id="ZU5cbvffsRnQBiPO3Dqd">
    <mxGraphModel dx="2021" dy="756" grid="1" gridSize="10" guides="1" tooltips="1" connect="1" arrows="1" fold="1" page="1" pageScale="1" pageWidth="827" pageHeight="1169" math="0" shadow="0">
      <root>
        <mxCell id="0" />
        <mxCell id="1" parent="0" />
        <mxCell id="LxmSEbVUToEdmtJiUatQ-17" style="edgeStyle=orthogonalEdgeStyle;rounded=0;orthogonalLoop=1;jettySize=auto;html=1;exitX=0.5;exitY=1;exitDx=0;exitDy=0;entryX=0.5;entryY=0;entryDx=0;entryDy=0;shape=link;" parent="1" source="LxmSEbVUToEdmtJiUatQ-1" target="LxmSEbVUToEdmtJiUatQ-2" edge="1">
          <mxGeometry relative="1" as="geometry" />
        </mxCell>
        <mxCell id="LxmSEbVUToEdmtJiUatQ-19" style="edgeStyle=orthogonalEdgeStyle;rounded=0;orthogonalLoop=1;jettySize=auto;html=1;exitX=1;exitY=0.5;exitDx=0;exitDy=0;entryX=0;entryY=0.25;entryDx=0;entryDy=0;shape=link;" parent="1" source="LxmSEbVUToEdmtJiUatQ-1" target="LxmSEbVUToEdmtJiUatQ-3" edge="1">
          <mxGeometry relative="1" as="geometry" />
        </mxCell>
        <mxCell id="LxmSEbVUToEdmtJiUatQ-1" value="&lt;strong&gt;Task:&lt;/strong&gt; Generate an explanation..." style="rounded=0;whiteSpace=wrap;html=1;fillColor=#f8cecc;strokeColor=#b85450;" parent="1" vertex="1">
          <mxGeometry x="70" y="170" width="120" height="70" as="geometry" />
        </mxCell>
        <mxCell id="LxmSEbVUToEdmtJiUatQ-20" style="edgeStyle=orthogonalEdgeStyle;rounded=0;orthogonalLoop=1;jettySize=auto;html=1;exitX=1;exitY=0.5;exitDx=0;exitDy=0;entryX=0;entryY=0.75;entryDx=0;entryDy=0;shape=link;" parent="1" source="LxmSEbVUToEdmtJiUatQ-2" target="LxmSEbVUToEdmtJiUatQ-3" edge="1">
          <mxGeometry relative="1" as="geometry" />
        </mxCell>
        <mxCell id="LxmSEbVUToEdmtJiUatQ-2" value="&lt;meta charset=&quot;utf-8&quot;&gt;&lt;strong&gt;Claim:&lt;/strong&gt; HER2 amplification predicts sensitivity to Trastuzumab." style="rounded=0;whiteSpace=wrap;html=1;fillColor=#f8cecc;strokeColor=#b85450;" parent="1" vertex="1">
          <mxGeometry x="70" y="250" width="120" height="70" as="geometry" />
        </mxCell>
        <mxCell id="LxmSEbVUToEdmtJiUatQ-21" style="edgeStyle=orthogonalEdgeStyle;rounded=0;orthogonalLoop=1;jettySize=auto;html=1;exitX=1;exitY=0.5;exitDx=0;exitDy=0;entryX=0;entryY=0.5;entryDx=0;entryDy=0;shape=link;" parent="1" source="LxmSEbVUToEdmtJiUatQ-3" target="LxmSEbVUToEdmtJiUatQ-5" edge="1">
          <mxGeometry relative="1" as="geometry" />
        </mxCell>
        <mxCell id="LxmSEbVUToEdmtJiUatQ-3" value="&lt;p style=&quot;line-height: 60%;&quot;&gt;&lt;strong style=&quot;&quot;&gt;&lt;font style=&quot;font-size: 12px;&quot;&gt;Evidence:&lt;/font&gt;&lt;/strong&gt;&lt;/p&gt;&lt;strong style=&quot;background-color: initial;&quot;&gt;ID:&amp;nbsp;&amp;nbsp;&lt;/strong&gt;&lt;span style=&quot;background-color: initial;&quot;&gt;1122&lt;/span&gt;&lt;br&gt;&lt;strong style=&quot;background-color: initial;&quot;&gt;Description:&amp;nbsp;&lt;/strong&gt;&lt;span style=&quot;background-color: initial;&quot;&gt;ERA was a Phase III trial...&lt;/span&gt;&lt;br&gt;&lt;strong style=&quot;background-color: initial;&quot;&gt;ID: &lt;/strong&gt;&lt;span style=&quot;background-color: initial;&quot;&gt;529&lt;/span&gt;&lt;br&gt;&lt;div style=&quot;&quot;&gt;&lt;span style=&quot;background-color: initial;&quot;&gt;...&lt;/span&gt;&lt;/div&gt;&lt;p&gt;&lt;/p&gt;" style="rounded=0;whiteSpace=wrap;html=1;fillColor=#f8cecc;strokeColor=#b85450;" parent="1" vertex="1">
          <mxGeometry x="200" y="170" width="120" height="150" as="geometry" />
        </mxCell>
        <mxCell id="LxmSEbVUToEdmtJiUatQ-5" value="&lt;p style=&quot;border-color: var(--border-color); line-height: 12px;&quot;&gt;&lt;strong style=&quot;border-color: var(--border-color);&quot;&gt;Context:&lt;/strong&gt;&lt;/p&gt;&lt;p style=&quot;border-color: var(--border-color); line-height: 12px;&quot;&gt;&lt;/p&gt;&lt;strong style=&quot;border-color: var(--border-color); background-color: initial;&quot;&gt;&lt;strong style=&quot;border-color: var(--border-color); background-color: initial;&quot;&gt;Molecular Profile:&amp;nbsp;&lt;/strong&gt;ERBB2 Amplification&lt;br style=&quot;border-color: var(--border-color);&quot;&gt;&lt;strong style=&quot;border-color: var(--border-color); background-color: initial;&quot;&gt;Molecular Profile Summary:&amp;nbsp;&lt;/strong&gt;&lt;span style=&quot;border-color: var(--border-color); background-color: initial; font-weight: 400;&quot;&gt;Her2 amplifications are...&lt;/span&gt;&lt;br style=&quot;border-color: var(--border-color);&quot;&gt;&lt;span style=&quot;border-color: var(--border-color); background-color: initial;&quot;&gt;...&lt;/span&gt;&lt;/strong&gt;" style="rounded=0;whiteSpace=wrap;html=1;dashed=1;dashPattern=1 4;strokeWidth=2;fillColor=#f8cecc;strokeColor=#b85450;" parent="1" vertex="1">
          <mxGeometry x="333.5" y="170" width="120" height="150" as="geometry" />
        </mxCell>
        <mxCell id="LxmSEbVUToEdmtJiUatQ-23" style="edgeStyle=orthogonalEdgeStyle;rounded=0;orthogonalLoop=1;jettySize=auto;html=1;exitX=1;exitY=0.5;exitDx=0;exitDy=0;strokeWidth=3;dashed=1;dashPattern=1 1;entryX=0;entryY=0.5;entryDx=0;entryDy=0;" parent="1" target="LxmSEbVUToEdmtJiUatQ-9" edge="1">
          <mxGeometry relative="1" as="geometry">
            <mxPoint x="660" y="256.99" as="sourcePoint" />
            <mxPoint x="730" y="130" as="targetPoint" />
            <Array as="points">
              <mxPoint x="700" y="257" />
              <mxPoint x="700" y="155" />
            </Array>
          </mxGeometry>
        </mxCell>
        <mxCell id="LxmSEbVUToEdmtJiUatQ-7" value="&lt;b&gt;EP&lt;/b&gt;" style="rounded=1;whiteSpace=wrap;html=1;fillColor=#bac8d3;strokeColor=#23445d;dashed=1;dashPattern=1 4;strokeWidth=2;" parent="1" vertex="1">
          <mxGeometry x="540" y="150" width="60" height="30" as="geometry" />
        </mxCell>
        <mxCell id="LxmSEbVUToEdmtJiUatQ-8" value="&lt;b&gt;COH&lt;br&gt;&lt;/b&gt;" style="rounded=1;whiteSpace=wrap;html=1;fillColor=#bac8d3;strokeColor=#23445d;dashed=1;dashPattern=1 4;strokeWidth=2;" parent="1" vertex="1">
          <mxGeometry x="610" y="150" width="60" height="30" as="geometry" />
        </mxCell>
        <mxCell id="LxmSEbVUToEdmtJiUatQ-9" value="&lt;meta charset=&quot;utf-8&quot;&gt;&lt;strong&gt;Updated Task: &lt;/strong&gt;(...) to evidence, utilising how properties account for observed..." style="rounded=1;whiteSpace=wrap;html=1;fillColor=#76608a;fontColor=#ffffff;strokeColor=#432D57;dashed=1;dashPattern=1 2;strokeWidth=2;" parent="1" vertex="1">
          <mxGeometry x="742.5" y="120" width="140" height="70" as="geometry" />
        </mxCell>
        <mxCell id="LxmSEbVUToEdmtJiUatQ-51" style="edgeStyle=orthogonalEdgeStyle;rounded=0;orthogonalLoop=1;jettySize=auto;html=1;exitX=0.5;exitY=1;exitDx=0;exitDy=0;entryX=0.5;entryY=0;entryDx=0;entryDy=0;strokeWidth=3;fillColor=#a0522d;strokeColor=#6D1F00;" parent="1" target="LxmSEbVUToEdmtJiUatQ-47" edge="1">
          <mxGeometry relative="1" as="geometry">
            <mxPoint x="605" y="390" as="sourcePoint" />
          </mxGeometry>
        </mxCell>
        <mxCell id="LxmSEbVUToEdmtJiUatQ-12" value="&lt;strong&gt;Baseline:&lt;br&gt;&lt;/strong&gt;&lt;strong style=&quot;background-color: initial;&quot;&gt;B1:&amp;nbsp;&lt;/strong&gt;How could I...&lt;br&gt;&lt;b&gt;B2&lt;/b&gt;: ..." style="rounded=1;whiteSpace=wrap;html=1;fillColor=#bac8d3;strokeColor=#23445d;" parent="1" vertex="1">
          <mxGeometry x="850" y="310" width="105.5" height="50" as="geometry" />
        </mxCell>
        <mxCell id="LxmSEbVUToEdmtJiUatQ-13" value="&lt;strong&gt;EP:&lt;br&gt;&lt;/strong&gt;&lt;strong style=&quot;background-color: initial;&quot;&gt;E1:&amp;nbsp;&lt;/strong&gt;How does...&lt;br&gt;&lt;b&gt;E2&lt;/b&gt;: ..." style="rounded=1;whiteSpace=wrap;html=1;fillColor=#bac8d3;strokeColor=#23445d;dashed=1;dashPattern=1 4;strokeWidth=2;" parent="1" vertex="1">
          <mxGeometry x="850" y="430" width="110" height="50" as="geometry" />
        </mxCell>
        <mxCell id="LxmSEbVUToEdmtJiUatQ-14" value="&lt;strong&gt;COH:&lt;br&gt;&lt;/strong&gt;&lt;strong style=&quot;background-color: initial;&quot;&gt;C1:&amp;nbsp;&lt;/strong&gt;How can I...&lt;br&gt;&lt;b&gt;C2&lt;/b&gt;: ..." style="rounded=1;whiteSpace=wrap;html=1;fillColor=#bac8d3;strokeColor=#23445d;dashed=1;dashPattern=1 4;strokeWidth=2;" parent="1" vertex="1">
          <mxGeometry x="850" y="370" width="110" height="50" as="geometry" />
        </mxCell>
        <mxCell id="LxmSEbVUToEdmtJiUatQ-33" value="&lt;b&gt;&lt;font style=&quot;font-size: 18px;&quot;&gt;Complete Task Description&lt;/font&gt;&lt;/b&gt;" style="text;html=1;align=center;verticalAlign=middle;resizable=0;points=[];autosize=1;strokeColor=none;fillColor=none;" parent="1" vertex="1">
          <mxGeometry x="135" y="120" width="250" height="40" as="geometry" />
        </mxCell>
        <mxCell id="LxmSEbVUToEdmtJiUatQ-80" style="edgeStyle=orthogonalEdgeStyle;rounded=0;orthogonalLoop=1;jettySize=auto;html=1;exitX=0;exitY=0.5;exitDx=0;exitDy=0;entryX=0.462;entryY=1.025;entryDx=0;entryDy=0;strokeWidth=3;entryPerimeter=0;" parent="1" source="LxmSEbVUToEdmtJiUatQ-34" target="LxmSEbVUToEdmtJiUatQ-101" edge="1">
          <mxGeometry relative="1" as="geometry">
            <mxPoint x="38.5" y="350" as="sourcePoint" />
            <mxPoint x="335" y="625" as="targetPoint" />
            <Array as="points">
              <mxPoint x="-1" y="235" />
              <mxPoint x="-1" y="710" />
              <mxPoint x="340" y="710" />
            </Array>
          </mxGeometry>
        </mxCell>
        <mxCell id="LxmSEbVUToEdmtJiUatQ-82" style="edgeStyle=orthogonalEdgeStyle;rounded=0;orthogonalLoop=1;jettySize=auto;html=1;exitX=0.5;exitY=1;exitDx=0;exitDy=0;entryX=0.5;entryY=0;entryDx=0;entryDy=0;strokeWidth=3;" parent="1" source="LxmSEbVUToEdmtJiUatQ-34" target="LxmSEbVUToEdmtJiUatQ-107" edge="1">
          <mxGeometry relative="1" as="geometry">
            <mxPoint x="445" y="430.0000000000001" as="targetPoint" />
            <Array as="points">
              <mxPoint x="265" y="390" />
              <mxPoint x="445" y="390" />
            </Array>
          </mxGeometry>
        </mxCell>
        <mxCell id="LxmSEbVUToEdmtJiUatQ-115" style="edgeStyle=orthogonalEdgeStyle;rounded=0;orthogonalLoop=1;jettySize=auto;html=1;exitX=0.75;exitY=1;exitDx=0;exitDy=0;entryX=0;entryY=0.5;entryDx=0;entryDy=0;strokeWidth=3;fillColor=#a0522d;strokeColor=#6D1F00;" parent="1" source="LxmSEbVUToEdmtJiUatQ-34" target="LxmSEbVUToEdmtJiUatQ-113" edge="1">
          <mxGeometry relative="1" as="geometry" />
        </mxCell>
        <mxCell id="LxmSEbVUToEdmtJiUatQ-34" value="" style="rounded=0;whiteSpace=wrap;html=1;fillColor=none;" parent="1" vertex="1">
          <mxGeometry x="50" y="120" width="420" height="220" as="geometry" />
        </mxCell>
        <mxCell id="LxmSEbVUToEdmtJiUatQ-46" value="" style="endArrow=classic;html=1;rounded=0;exitX=0.999;exitY=0.64;exitDx=0;exitDy=0;exitPerimeter=0;entryX=0;entryY=0.5;entryDx=0;entryDy=0;strokeWidth=3;dashed=1;dashPattern=1 1;" parent="1" source="LxmSEbVUToEdmtJiUatQ-34" edge="1">
          <mxGeometry width="50" height="50" relative="1" as="geometry">
            <mxPoint x="510" y="460" as="sourcePoint" />
            <mxPoint x="540" y="260" as="targetPoint" />
          </mxGeometry>
        </mxCell>
        <mxCell id="LxmSEbVUToEdmtJiUatQ-47" value="&lt;b&gt;Selected Modules:&amp;nbsp;&lt;/b&gt;&lt;br&gt;&lt;b&gt;B2:&amp;nbsp;&lt;/b&gt;Make a list of...&lt;b&gt;&lt;br&gt;&lt;/b&gt;&lt;b&gt;C5:&amp;nbsp;&lt;/b&gt;What measures...&lt;b&gt;&lt;br&gt;&lt;/b&gt;&lt;b&gt;E17:&amp;nbsp;&lt;/b&gt;Evaluate how..." style="rounded=1;whiteSpace=wrap;html=1;fillColor=#76608a;fontColor=#ffffff;strokeColor=#432D57;" parent="1" vertex="1">
          <mxGeometry x="540" y="430" width="130" height="60" as="geometry" />
        </mxCell>
        <mxCell id="LxmSEbVUToEdmtJiUatQ-55" style="edgeStyle=orthogonalEdgeStyle;rounded=0;orthogonalLoop=1;jettySize=auto;html=1;exitX=0.002;exitY=0.296;exitDx=0;exitDy=0;entryX=1;entryY=0.5;entryDx=0;entryDy=0;strokeWidth=3;exitPerimeter=0;fillColor=#a0522d;strokeColor=#6D1F00;" parent="1" source="LxmSEbVUToEdmtJiUatQ-107" target="LxmSEbVUToEdmtJiUatQ-54" edge="1">
          <mxGeometry relative="1" as="geometry">
            <mxPoint x="380" y="460.0000000000001" as="sourcePoint" />
          </mxGeometry>
        </mxCell>
        <mxCell id="LxmSEbVUToEdmtJiUatQ-67" style="edgeStyle=orthogonalEdgeStyle;rounded=0;orthogonalLoop=1;jettySize=auto;html=1;exitX=0;exitY=0.5;exitDx=0;exitDy=0;entryX=1.017;entryY=0.127;entryDx=0;entryDy=0;strokeWidth=3;entryPerimeter=0;fillColor=#a0522d;strokeColor=#6D1F00;" parent="1" source="LxmSEbVUToEdmtJiUatQ-54" target="LxmSEbVUToEdmtJiUatQ-106" edge="1">
          <mxGeometry relative="1" as="geometry">
            <mxPoint x="190" y="460" as="targetPoint" />
          </mxGeometry>
        </mxCell>
        <mxCell id="LxmSEbVUToEdmtJiUatQ-54" value="&lt;b&gt;Adapted Modules:&amp;nbsp;&lt;/b&gt;&lt;br&gt;&lt;b&gt;B2*:&amp;nbsp;&lt;/b&gt;Make a list of...&lt;b&gt;&lt;br&gt;&lt;/b&gt;&lt;b&gt;C5*:&amp;nbsp;&lt;/b&gt;What measures...&lt;b&gt;&lt;br&gt;&lt;/b&gt;&lt;b&gt;E17*:&amp;nbsp;&lt;/b&gt;Evaluate how..." style="rounded=1;whiteSpace=wrap;html=1;fillColor=#76608a;fontColor=#ffffff;strokeColor=#432D57;" parent="1" vertex="1">
          <mxGeometry x="220" y="430" width="130" height="60" as="geometry" />
        </mxCell>
        <mxCell id="LxmSEbVUToEdmtJiUatQ-56" value="" style="rounded=0;whiteSpace=wrap;html=1;fillColor=none;" parent="1" vertex="1">
          <mxGeometry x="840" y="280" width="130" height="210" as="geometry" />
        </mxCell>
        <mxCell id="LxmSEbVUToEdmtJiUatQ-57" value="&lt;font style=&quot;font-size: 13px;&quot;&gt;Reasoning Modules&lt;/font&gt;" style="text;html=1;align=center;verticalAlign=middle;resizable=0;points=[];autosize=1;strokeColor=none;fillColor=none;" parent="1" vertex="1">
          <mxGeometry x="835" y="280" width="140" height="30" as="geometry" />
        </mxCell>
        <mxCell id="LxmSEbVUToEdmtJiUatQ-60" style="edgeStyle=orthogonalEdgeStyle;rounded=0;orthogonalLoop=1;jettySize=auto;html=1;exitX=0.5;exitY=1;exitDx=0;exitDy=0;entryX=0.5;entryY=0;entryDx=0;entryDy=0;strokeWidth=3;dashed=1;dashPattern=1 1;" parent="1" source="LxmSEbVUToEdmtJiUatQ-59" edge="1">
          <mxGeometry relative="1" as="geometry">
            <mxPoint x="605" y="230" as="targetPoint" />
          </mxGeometry>
        </mxCell>
        <mxCell id="LxmSEbVUToEdmtJiUatQ-59" value="" style="rounded=0;whiteSpace=wrap;html=1;fillColor=none;" parent="1" vertex="1">
          <mxGeometry x="530" y="120" width="150" height="73" as="geometry" />
        </mxCell>
        <mxCell id="LxmSEbVUToEdmtJiUatQ-61" value="&lt;font style=&quot;font-size: 13px;&quot;&gt;&lt;b&gt;Epistemic Definitions&lt;/b&gt;&lt;/font&gt;" style="text;html=1;align=center;verticalAlign=middle;resizable=0;points=[];autosize=1;strokeColor=none;fillColor=none;" parent="1" vertex="1">
          <mxGeometry x="525" y="120" width="160" height="30" as="geometry" />
        </mxCell>
        <mxCell id="LxmSEbVUToEdmtJiUatQ-79" style="edgeStyle=orthogonalEdgeStyle;rounded=0;orthogonalLoop=1;jettySize=auto;html=1;exitX=0.5;exitY=1;exitDx=0;exitDy=0;entryX=0.5;entryY=0;entryDx=0;entryDy=0;strokeWidth=3;fillColor=#a0522d;strokeColor=#6D1F00;" parent="1" target="LxmSEbVUToEdmtJiUatQ-73" edge="1">
          <mxGeometry relative="1" as="geometry">
            <mxPoint x="125" y="490" as="sourcePoint" />
          </mxGeometry>
        </mxCell>
        <mxCell id="LxmSEbVUToEdmtJiUatQ-77" style="edgeStyle=orthogonalEdgeStyle;rounded=0;orthogonalLoop=1;jettySize=auto;html=1;exitX=1;exitY=0.5;exitDx=0;exitDy=0;entryX=0.007;entryY=0.389;entryDx=0;entryDy=0;strokeWidth=3;entryPerimeter=0;fillColor=#a0522d;strokeColor=#6D1F00;" parent="1" source="LxmSEbVUToEdmtJiUatQ-73" target="LxmSEbVUToEdmtJiUatQ-101" edge="1">
          <mxGeometry relative="1" as="geometry">
            <mxPoint x="270" y="595" as="targetPoint" />
          </mxGeometry>
        </mxCell>
        <mxCell id="LxmSEbVUToEdmtJiUatQ-73" value="&lt;div style=&quot;text-align: center;&quot;&gt;&lt;b style=&quot;background-color: initial;&quot;&gt;Reasoning Structure:&amp;nbsp;&lt;/b&gt;&lt;/div&gt;&lt;b style=&quot;background-color: initial;&quot;&gt;&lt;span style=&quot;white-space: pre;&quot;&gt;&#x9;&lt;/span&gt;{&lt;/b&gt;&lt;br&gt;&lt;b style=&quot;background-color: initial;&quot;&gt;&lt;span style=&quot;white-space: pre;&quot;&gt;&#x9;&lt;/span&gt;Step 1: &lt;/b&gt;&lt;span style=&quot;background-color: initial;&quot;&gt;List properties &lt;span style=&quot;white-space: pre;&quot;&gt;&#x9;&lt;span style=&quot;white-space: pre;&quot;&gt;&#x9;&lt;/span&gt;     &lt;/span&gt;that...&lt;/span&gt;&lt;br&gt;&lt;b style=&quot;background-color: initial;&quot;&gt;&lt;span style=&quot;white-space: pre;&quot;&gt;&#x9;&lt;/span&gt;Step 2: &lt;/b&gt;&lt;span style=&quot;background-color: initial;&quot;&gt;Evaluate &lt;span style=&quot;white-space: pre;&quot;&gt;&#x9;&lt;/span&gt;&lt;span style=&quot;white-space: pre;&quot;&gt;&#x9;&lt;/span&gt;&amp;nbsp; &amp;nbsp; &amp;nbsp;how...&lt;/span&gt;&lt;br&gt;&lt;b style=&quot;background-color: initial;&quot;&gt;&lt;span style=&quot;white-space: pre;&quot;&gt;&#x9;&lt;/span&gt;&lt;span style=&quot;white-space: pre;&quot;&gt;&#x9;&lt;span style=&quot;white-space: pre;&quot;&gt;&#x9;&lt;/span&gt;&lt;/span&gt;...&lt;/b&gt;&lt;br&gt;&lt;div style=&quot;font-weight: bold;&quot;&gt;&lt;b style=&quot;background-color: initial;&quot;&gt;&lt;span style=&quot;white-space: pre;&quot;&gt;&#x9;&lt;/span&gt;}&lt;/b&gt;&lt;/div&gt;" style="rounded=1;whiteSpace=wrap;html=1;align=left;fillColor=#76608a;fontColor=#ffffff;strokeColor=#432D57;" parent="1" vertex="1">
          <mxGeometry x="42.5" y="530" width="165" height="130" as="geometry" />
        </mxCell>
        <mxCell id="LxmSEbVUToEdmtJiUatQ-84" value="&lt;b&gt;Explanation:&lt;/b&gt;&lt;br&gt;The use of Trastuzumab..." style="rounded=1;whiteSpace=wrap;html=1;fillColor=#76608a;fontColor=#ffffff;strokeColor=#432D57;" parent="1" vertex="1">
          <mxGeometry x="535" y="560" width="139" height="70" as="geometry" />
        </mxCell>
        <mxCell id="LxmSEbVUToEdmtJiUatQ-85" value="&lt;b&gt;Evidence IDs:&lt;/b&gt;&lt;br&gt;[1123, 723, ... ]" style="rounded=1;whiteSpace=wrap;html=1;dashed=1;dashPattern=1 4;strokeWidth=2;fillColor=#76608a;fontColor=#ffffff;strokeColor=#432D57;" parent="1" vertex="1">
          <mxGeometry x="534.5" y="650" width="140" height="60" as="geometry" />
        </mxCell>
        <mxCell id="LxmSEbVUToEdmtJiUatQ-86" value="&lt;b&gt;Filled Reasoning Structure:&lt;br&gt;&lt;div style=&quot;text-align: justify;&quot;&gt;&lt;span style=&quot;background-color: initial; font-weight: normal;&quot;&gt;&lt;span style=&quot;white-space: pre;&quot;&gt;&#x9;&lt;/span&gt;{&lt;/span&gt;&lt;/div&gt;&lt;/b&gt;&amp;nbsp; &amp;nbsp; &amp;nbsp; &amp;nbsp;&lt;b&gt;Step 1:&lt;/b&gt; Monoclonal Antibodies, ...&lt;br&gt;&amp;nbsp; &amp;nbsp; &lt;b&gt;Step 2:&lt;/b&gt; Based on given...&lt;br&gt;...&lt;br&gt;&lt;div style=&quot;text-align: justify;&quot;&gt;&lt;span style=&quot;background-color: initial;&quot;&gt;&lt;span style=&quot;white-space: pre;&quot;&gt;&#x9;&lt;/span&gt;}&lt;/span&gt;&lt;/div&gt;" style="rounded=1;whiteSpace=wrap;html=1;fillColor=#76608a;fontColor=#ffffff;strokeColor=#432D57;" parent="1" vertex="1">
          <mxGeometry x="690" y="560" width="140" height="150" as="geometry" />
        </mxCell>
        <mxCell id="LxmSEbVUToEdmtJiUatQ-93" value="" style="rounded=0;whiteSpace=wrap;html=1;fillColor=none;" parent="1" vertex="1">
          <mxGeometry x="525" y="520" width="315" height="200" as="geometry" />
        </mxCell>
        <mxCell id="LxmSEbVUToEdmtJiUatQ-95" style="edgeStyle=orthogonalEdgeStyle;rounded=0;orthogonalLoop=1;jettySize=auto;html=1;exitX=1;exitY=0.5;exitDx=0;exitDy=0;entryX=-0.006;entryY=0.375;entryDx=0;entryDy=0;entryPerimeter=0;strokeWidth=3;fillColor=#a0522d;strokeColor=#6D1F00;" parent="1" target="LxmSEbVUToEdmtJiUatQ-93" edge="1">
          <mxGeometry relative="1" as="geometry">
            <mxPoint x="400" y="595" as="sourcePoint" />
          </mxGeometry>
        </mxCell>
        <mxCell id="LxmSEbVUToEdmtJiUatQ-96" value="&lt;font style=&quot;font-size: 18px;&quot;&gt;Final Output&lt;/font&gt;" style="text;html=1;align=center;verticalAlign=middle;resizable=0;points=[];autosize=1;strokeColor=none;fillColor=none;" parent="1" vertex="1">
          <mxGeometry x="622.5" y="520" width="120" height="40" as="geometry" />
        </mxCell>
        <mxCell id="LxmSEbVUToEdmtJiUatQ-100" value="&lt;i&gt;&lt;b&gt;LLM + Prompt&lt;/b&gt;&lt;/i&gt;" style="swimlane;fontStyle=0;childLayout=stackLayout;horizontal=1;startSize=30;horizontalStack=0;resizeParent=1;resizeParentMax=0;resizeLast=0;collapsible=1;marginBottom=0;whiteSpace=wrap;html=1;fillColor=#a0522d;strokeColor=#6D1F00;fillStyle=solid;fontColor=#ffffff;rounded=1;" parent="1" vertex="1">
          <mxGeometry x="280" y="550" width="130" height="70" as="geometry" />
        </mxCell>
        <mxCell id="LxmSEbVUToEdmtJiUatQ-101" value="&lt;blockquote style=&quot;margin: 0 0 0 40px; border: none; padding: 0px;&quot;&gt;&lt;div style=&quot;text-align: center;&quot;&gt;&lt;span style=&quot;background-color: initial;&quot;&gt;&lt;font color=&quot;#ffffff&quot;&gt;&lt;b&gt;Step 4:&lt;/b&gt;&lt;/font&gt;&lt;/span&gt;&lt;/div&gt;&lt;div style=&quot;text-align: center;&quot;&gt;&lt;span style=&quot;background-color: initial;&quot;&gt;&lt;font color=&quot;#ffffff&quot;&gt;&lt;b&gt;REASON&lt;/b&gt;&lt;/font&gt;&lt;/span&gt;&lt;/div&gt;&lt;/blockquote&gt;" style="text;strokeColor=#6D1F00;fillColor=#a0522d;align=left;verticalAlign=middle;spacingLeft=4;spacingRight=4;overflow=hidden;points=[[0,0.5],[1,0.5]];portConstraint=eastwest;rotatable=0;whiteSpace=wrap;html=1;fontColor=#ffffff;rounded=1;" parent="LxmSEbVUToEdmtJiUatQ-100" vertex="1">
          <mxGeometry y="30" width="130" height="40" as="geometry" />
        </mxCell>
        <mxCell id="LxmSEbVUToEdmtJiUatQ-105" value="&lt;i&gt;&lt;b&gt;LLM + Prompt&lt;/b&gt;&lt;/i&gt;" style="swimlane;fontStyle=0;childLayout=stackLayout;horizontal=1;startSize=30;horizontalStack=0;resizeParent=1;resizeParentMax=0;resizeLast=0;collapsible=1;marginBottom=0;whiteSpace=wrap;html=1;fillColor=#a0522d;strokeColor=#6D1F00;fillStyle=solid;fontColor=#ffffff;rounded=1;" parent="1" vertex="1">
          <mxGeometry x="70" y="425" width="110" height="70" as="geometry" />
        </mxCell>
        <mxCell id="LxmSEbVUToEdmtJiUatQ-106" value="&lt;b style=&quot;background-color: initial;&quot;&gt;Step 3:&lt;/b&gt;&lt;br&gt;&lt;div style=&quot;&quot;&gt;&lt;b&gt;STRUCTURE&lt;/b&gt;&lt;/div&gt;" style="text;strokeColor=#6D1F00;fillColor=#a0522d;align=center;verticalAlign=middle;spacingLeft=4;spacingRight=4;overflow=hidden;points=[[0,0.5],[1,0.5]];portConstraint=eastwest;rotatable=0;whiteSpace=wrap;html=1;fontColor=#ffffff;rounded=1;" parent="LxmSEbVUToEdmtJiUatQ-105" vertex="1">
          <mxGeometry y="30" width="110" height="40" as="geometry" />
        </mxCell>
        <mxCell id="LxmSEbVUToEdmtJiUatQ-107" value="&lt;i&gt;&lt;b&gt;LLM + Prompt&lt;/b&gt;&lt;/i&gt;" style="swimlane;fontStyle=0;childLayout=stackLayout;horizontal=1;startSize=30;horizontalStack=0;resizeParent=1;resizeParentMax=0;resizeLast=0;collapsible=1;marginBottom=0;whiteSpace=wrap;html=1;fillColor=#a0522d;strokeColor=#6D1F00;fillStyle=solid;fontColor=#ffffff;rounded=1;" parent="1" vertex="1">
          <mxGeometry x="385" y="440" width="120" height="70" as="geometry" />
        </mxCell>
        <mxCell id="LxmSEbVUToEdmtJiUatQ-108" value="&lt;b style=&quot;background-color: initial;&quot;&gt;Step 2:&lt;/b&gt;&lt;br&gt;&lt;div style=&quot;&quot;&gt;&lt;b&gt;ADAPT&lt;/b&gt;&lt;/div&gt;" style="text;strokeColor=#6D1F00;fillColor=#a0522d;align=center;verticalAlign=middle;spacingLeft=4;spacingRight=4;overflow=hidden;points=[[0,0.5],[1,0.5]];portConstraint=eastwest;rotatable=0;whiteSpace=wrap;html=1;fontColor=#ffffff;rounded=1;" parent="LxmSEbVUToEdmtJiUatQ-107" vertex="1">
          <mxGeometry y="30" width="120" height="40" as="geometry" />
        </mxCell>
        <mxCell id="LxmSEbVUToEdmtJiUatQ-110" style="edgeStyle=orthogonalEdgeStyle;rounded=0;orthogonalLoop=1;jettySize=auto;html=1;exitX=0;exitY=0.5;exitDx=0;exitDy=0;entryX=0.99;entryY=0.279;entryDx=0;entryDy=0;entryPerimeter=0;strokeWidth=3;fillColor=#a0522d;strokeColor=#6D1F00;" parent="1" source="LxmSEbVUToEdmtJiUatQ-47" target="LxmSEbVUToEdmtJiUatQ-107" edge="1">
          <mxGeometry relative="1" as="geometry" />
        </mxCell>
        <mxCell id="LxmSEbVUToEdmtJiUatQ-112" value="" style="endArrow=classic;html=1;rounded=0;entryX=0.458;entryY=0.001;entryDx=0;entryDy=0;entryPerimeter=0;exitX=0.168;exitY=1;exitDx=0;exitDy=0;exitPerimeter=0;strokeWidth=3;" parent="1" source="LxmSEbVUToEdmtJiUatQ-34" target="LxmSEbVUToEdmtJiUatQ-105" edge="1">
          <mxGeometry width="50" height="50" relative="1" as="geometry">
            <mxPoint x="230" y="420" as="sourcePoint" />
            <mxPoint x="280" y="370" as="targetPoint" />
          </mxGeometry>
        </mxCell>
        <mxCell id="LxmSEbVUToEdmtJiUatQ-113" value="&lt;i&gt;&lt;b&gt;LLM + Prompt&lt;/b&gt;&lt;/i&gt;" style="swimlane;fontStyle=0;childLayout=stackLayout;horizontal=1;startSize=30;horizontalStack=0;resizeParent=1;resizeParentMax=0;resizeLast=0;collapsible=1;marginBottom=0;whiteSpace=wrap;html=1;fillColor=#a0522d;strokeColor=#6D1F00;fillStyle=solid;fontColor=#ffffff;rounded=1;" parent="1" vertex="1">
          <mxGeometry x="550" y="330" width="110" height="60" as="geometry" />
        </mxCell>
        <mxCell id="LxmSEbVUToEdmtJiUatQ-114" value="&lt;b style=&quot;background-color: initial;&quot;&gt;Step 1:&lt;/b&gt;&lt;br&gt;&lt;div style=&quot;&quot;&gt;&lt;b&gt;SELECT&lt;/b&gt;&lt;/div&gt;" style="text;strokeColor=#6D1F00;fillColor=#a0522d;align=center;verticalAlign=middle;spacingLeft=4;spacingRight=4;overflow=hidden;points=[[0,0.5],[1,0.5]];portConstraint=eastwest;rotatable=0;whiteSpace=wrap;html=1;fontColor=#ffffff;rounded=1;" parent="LxmSEbVUToEdmtJiUatQ-113" vertex="1">
          <mxGeometry y="30" width="110" height="30" as="geometry" />
        </mxCell>
        <mxCell id="LxmSEbVUToEdmtJiUatQ-116" value="&lt;i&gt;&lt;b&gt;LLM + Prompt&lt;/b&gt;&lt;/i&gt;" style="swimlane;fontStyle=0;childLayout=stackLayout;horizontal=1;startSize=30;horizontalStack=0;resizeParent=1;resizeParentMax=0;resizeLast=0;collapsible=1;marginBottom=0;whiteSpace=wrap;html=1;fillColor=#a0522d;strokeColor=#6D1F00;fillStyle=solid;fontColor=#ffffff;rounded=1;dashed=1;dashPattern=1 1;strokeWidth=2;" parent="1" vertex="1">
          <mxGeometry x="540" y="230" width="130" height="60" as="geometry" />
        </mxCell>
        <mxCell id="LxmSEbVUToEdmtJiUatQ-117" value="&lt;b style=&quot;background-color: initial;&quot;&gt;Step 0:&lt;/b&gt;&lt;br&gt;&lt;div style=&quot;&quot;&gt;&lt;b&gt;PROVIDE CONTEXT&lt;/b&gt;&lt;/div&gt;" style="text;strokeColor=#6D1F00;fillColor=#a0522d;align=center;verticalAlign=middle;spacingLeft=4;spacingRight=4;overflow=hidden;points=[[0,0.5],[1,0.5]];portConstraint=eastwest;rotatable=0;whiteSpace=wrap;html=1;fontColor=#ffffff;rounded=1;" parent="LxmSEbVUToEdmtJiUatQ-116" vertex="1">
          <mxGeometry y="30" width="130" height="30" as="geometry" />
        </mxCell>
        <mxCell id="LxmSEbVUToEdmtJiUatQ-119" style="edgeStyle=orthogonalEdgeStyle;rounded=0;orthogonalLoop=1;jettySize=auto;html=1;exitX=0.5;exitY=1;exitDx=0;exitDy=0;strokeWidth=3;dashed=1;dashPattern=1 1;" parent="1" source="LxmSEbVUToEdmtJiUatQ-9" edge="1">
          <mxGeometry relative="1" as="geometry">
            <mxPoint x="471" y="310" as="targetPoint" />
            <Array as="points">
              <mxPoint x="813" y="193" />
              <mxPoint x="810" y="193" />
              <mxPoint x="810" y="310" />
            </Array>
          </mxGeometry>
        </mxCell>
        <mxCell id="LxmSEbVUToEdmtJiUatQ-120" value="" style="endArrow=classic;html=1;rounded=0;entryX=1.006;entryY=-0.078;entryDx=0;entryDy=0;entryPerimeter=0;strokeWidth=3;exitX=0.003;exitY=0.367;exitDx=0;exitDy=0;exitPerimeter=0;fillColor=#a0522d;strokeColor=#6D1F00;" parent="1" source="LxmSEbVUToEdmtJiUatQ-56" target="LxmSEbVUToEdmtJiUatQ-114" edge="1">
          <mxGeometry width="50" height="50" relative="1" as="geometry">
            <mxPoint x="841" y="354" as="sourcePoint" />
            <mxPoint x="890" y="350" as="targetPoint" />
          </mxGeometry>
        </mxCell>
      </root>
    </mxGraphModel>
  </diagram>
</mxfile>
